<?xml version="1.0" encoding="UTF-8"?>
<svg version="1.1" viewBox="0 0 1600 546" width="1280" height="1280" xmlns="http://www.w3.org/2000/svg">
<path transform="translate(129,41)" d="m0 0h189l21 3 21 6 19 9 10 8 68 68 7 8 8 8 8 13 6 15 5 18 2 12 1 11v239l-4 8-5 4-7 3h-233l-3 9-7 9-11 7-7 2h-141l-12-5-9-8-6-10-2-7v-85l4-10 6-9 9-7 11-4 36-1 1-297 3-8 5-5 4-3z" fill="#A972EB"/>
<path transform="translate(302,121)" d="m0 0h5l18 13 20 14 34 24 18 13 19 13 2 2v114l-7 6-22 15-34 24-16 11-30 21-3 2-5-1-30-21-3-1-4-4-10-7-4-1v-3l-5-2-17-12-33-23-5-5v-112l8-7 16-11 17-12 18-13 19-13 15-11z" fill="#E2E3E7"/>
<path transform="translate(77,356)" d="m0 0h140l11 4 10 8 6 10 3 10v79l-3 12-5 8-4 5-11 7-7 2h-141l-12-5-9-8-6-10-2-7v-85l4-10 6-9 9-7z" fill="#E7AD4E"/>
<path transform="translate(191,316)" d="m0 0 4 1 50 35 5 3v3l5 1 13 9v2l4 1 16 11 13 9 5 1 13-9 20-14 13-9 17-12 20-14 14-10 4 1-1 12-6 11-10 9-2 1-1 3-21 1-5 1-2 6 3 12 2 1v2h39l-1 2-17 1-1 3-23 1-2 5h-2l1 11 3 3 3 1v2h16v1l-18 2-4 10-1 10 4 2v2l82 1-2 2-14 1h-55l-15-1-10-5-9 2-13 6-10 5h-7l-1-1-17-2-5-1-1 2-4 1-7 7-7 1-3 11-1 4-17 1 1-7v-79l-3-10-6-10-9-7-11-4-5-1-47-1v-1l13-2 7-4 4-6 1-5v-19z" fill="#8745DB"/>
<path transform="translate(301,151)" d="m0 0h7l2 1v2l4 1 19 13 15 11 20 14 12 9 5 4-1 4-16 11-51 36-11 8-5-1-15-11-20-14-17-12-20-14-6-4v-3l19-14 17-12 18-13 19-13 2-1 2 1z" fill="#E39631"/>
<path transform="translate(1254,234)" d="m0 0h29l8 13 30 52 8 16 8 17-1-33v-64l1-1h23v136h-27l-15-26-16-28-10-18-8-15-7-16 1 46v56l-1 1h-23z" fill="#fff"/>
<path transform="translate(871,233)" d="m0 0h12l19 2 14 4 14 7 8 7 7 10 5 11 3 14v22l-3 15-5 12-7 11-10 9-10 6-18 6-13 2h-37l-10-1-1-1v-133l14-2zm-3 21-3 1v95h25l12-4 9-6 8-9 5-13 2-12v-12l-3-15-6-11-9-8-12-5-5-1z" fill="#fff"/>
<path transform="translate(532,233)" d="m0 0h10l19 2 12 4 9 6 6 7 3 7 1 9-2 11-6 9-8 6-6 2v2l6 1 9 6 7 8 4 10v16l-4 10-5 7-11 8-11 4-17 3h-35l-10-1-1-1v-133l12-2zm-2 20-2 1v35h21l9-4 6-7 1-2v-12l-4-6-7-4-4-1zm-2 55v43h23l10-4 6-7 2-5v-10l-4-8-6-5-8-3-5-1z" fill="#fff"/>
<path transform="translate(1117,233)" d="m0 0h10l18 2 13 4 11 8 6 10 2 7v14l-4 11-7 9-12 8 8 6 6 9 5 16 7 26 2 7h-27l-4-10-7-29-5-10-6-4-3-1-18-1v54l-1 1h-25v-134l13-2zm-1 20-4 1v41h22l9-4 6-7 2-5v-10l-3-8-6-5-10-3z" fill="#fff"/>
<path transform="translate(649,233)" d="m0 0h10l18 2 13 4 11 8 6 10 2 7v15l-5 12-7 8-11 7 8 6 6 9 5 16 7 26 2 7h-27l-4-10-7-29-5-10-6-4-3-1-18-1v54l-1 1h-25v-134l13-2zm-1 20-4 1v41h22l9-4 6-7 2-5v-10l-3-8-6-5-10-3z" fill="#fff"/>
<path transform="translate(1e3 233)" d="m0 0h10l17 2 12 4 9 6 8 9 4 11 1 11-2 13-4 10-9 10-10 6-13 4-6 1h-21l-1 50h-26v-134l13-2zm2 20-7 1v45l3 1h14l10-3 8-6 4-8v-14l-4-8-6-5-12-3z" fill="#fff"/>
<path transform="translate(397,223)" d="m0 0h1v22l-1 18-1 37-4 5-6-3 3 4-1 3-16 11-20 14-18 13-17 12-3 1v-79l18-13 19-13 18-13 20-14z" fill="#C8560B"/>
<path transform="translate(212,224)" d="m0 0 10 6 51 36 18 13 4 3v78l-5-2-18-13-20-14-18-13-15-10 3-6-4 3-3-1-2-4-1-22z" fill="#C24D12"/>
<path transform="translate(190,201)" d="m0 0 1 2 5 2 18 13 19 13 15 11 23 16 17 12 14 10 3 3 1 110-5-1-30-21-3-1-4-4-10-7-4-1v-3l-5-2-17-12-33-23-5-5zm22 23v54l1 22 3 5 5-2 2-3-4 8 19 13 18 13 19 13 18 13h2v-78l-16-12-16-11-18-13-19-13-10-7z" fill="#D4D2E1"/>
<path transform="translate(759,237)" d="m0 0h17l12 3 10 6 7 8 3 7 1 5v7l-3 10-4 6-8 7-6 3 3 2 8 4 8 7 5 10 1 4v13l-3 10-7 9-7 6-11 5-14 3h-18l-16-3-10-5-1-3 5-17 9 3 11 3h18l8-3 5-4 3-6v-11l-3-6-7-6-9-3-19-1-1-1v-18l16-1 10-3 6-4 3-5v-9l-3-5-3-3-6-2h-15l-13 4-3 2h-3l-5-18 8-5 13-4z" fill="#fff"/>
<path transform="translate(1376,234)" d="m0 0h101v22l-37 1-1 113h-26v-114h-37z" fill="#fff"/>
<path transform="translate(148,390)" d="m0 0h30l13 4 6 4 7 8 4 10 1 7v10l-2 10-6 12-7 6-9 4-13 2h-22l-5-3-2-3v-65l3-5z" fill="#E2E3E7"/>
<path transform="translate(356,54)" d="m0 0 11 3 2 1v2h3l3 3 3 1 4 5 6 5 1 3 5 5 7 14 3 15v13l4 2 5 4 2 1 25 2 14 5 6 3 3 5v3l9 11 4 6v2h2l7 18-1 4-15-12-18-8-15-4-12-1-9-4-9-7-5-5-8-11-10-21-4-11-4-17-4-12-6-10-8-11z" fill="#8745DB"/>
<path transform="translate(1200,234)" d="m0 0h26v136h-26z" fill="#fff"/>
<path transform="translate(102,389)" d="m0 0h18l10 5 4 5 2 6v10l-4 9v3l6 7 1 3v12l-5 10-8 6-11 3h-13l-13-4-4-5v-11l4-4 5 1 9 3h7l4-1v-6l-4-3-14-1-4-3-1-3v-7l3-5 2-1 13-1 2-1 1-5-1-2h-8l-8 4-7-1-2-5 1-9 5-5z" fill="#E2E3E7"/>
<path transform="translate(201,356)" d="m0 0h16l11 4 10 8 6 10 3 10v79h-1l-1-50-4-4-6-4-4-3-2 1-1 30v29h-2l-1-10-1-26-3-13-5-14-9-11-9-7-11-4-6-1-17-1-1-1-33-1-2-2 60-1 3-2 3-6h2l2-4v-5z" fill="#E19331"/>
<path transform="translate(129,41)" d="m0 0h189l21 3 21 6 19 9 10 8 68 68 7 8 8 8 8 13 6 15 5 18 2 12v7l-2-3-2-14-4-16h-2l-5-13v-2h-2l-8-12-7-8 1-3-3-4-10-4-9-3-25-2-6-4-5-4-2-20-4-13-7-12-3-2-3-5-7-6v-2l-5-1-1-3h-3v-2l-6-2-8-4-16-5-12-2-15-1h-182l-7 3-3 3-2-1 5-5z" fill="#BA95F0"/>
<path transform="translate(184,357)" d="m0 0h14l1 5-3 4h-2l-2 6-4 3-58 1 33 1 1 1 17 1 12 3 8 4 10 9 7 10 5 14 2 11 1 30 1 9-1 2-3-1-5-27-2-6-2-1-2 5h-2l-2 6h-1l1-14v-10l-2-10-5-10-8-7-8-8-10-4-11-2-31-2-34-1-19 1-8 5-3 7-1 30h-1l-1-9v-24l3-7 5-5 6-3 77-1 16-8 6-4 3-3z" fill="#E4A13F"/>
<path transform="translate(366,391)" d="m0 0h76l5 4 1 9-2 5-4 3h-78l-5-3-2-2v-11h2l2-4z" fill="#E2E3E7"/>
<path transform="translate(344,437)" d="m0 0 5 1 8 4 15 1h67v1l-6 1-19 1h-18l-31 1-11 1h-9l-8 4-9 7-11 8-7 5v1l-59 1v-1l9-1 2-1 2-9 2-4 5-2 4-2 7-6 2 1 1-3 22 3 1 1h7l10-5 13-6z" fill="#985FE7"/>
<path transform="translate(374,419)" d="m0 0h64l7 2 3 7-1 8-3 3-12 1h-57l-14-1-4-3v-10l3-5 2-1z" fill="#E2E3E7"/>
<path transform="translate(347,50)" d="m0 0 8 1 8 4-2 1h-3l6 8 6 9 5 13 4 15 4 13 9 20 5 8 6 8 3 2v2l4 2 8 6 6 2 17 2 15 5 14 7 14 11v-6l2 2 2 8v6l-4-2-12-11-15-8-10-3-26-3-10-2-7-4-8-13-13-11-5-7-3-10-3-13-2-14-9-27-8-11-6-9z" fill="#985FE7"/>
<path transform="translate(191,316)" d="m0 0 4 1 50 35-1 7-3 2h-13l-11-4-5-1-47-1v-1l13-2 7-4 4-6 1-5v-19z" fill="#8846DB"/>
<path transform="translate(222,264)" d="m0 0h1l1 5 1 21 2 6 12 10 16 12-1-7 4-1 10 9 7 5-6-8-7-4-7-8-5-11v-7l4-1 5 5 1 9 1 3h2l-1-5 4 1 4 5 4 10v-3l-2-6 4 2 6 9 3 8v6l-4 1 8 7 3 7-1 3-34-24-22-15-5 2v3l-1 2-10-7 3-6-4 3-3-1-2-4v-8l2 3 7-3z" fill="#C3603C"/>
<path transform="translate(370,362)" d="m0 0h43l5 4 1 2v8l-3 6-2 1h-50l-3-3-2-5-1-7 2-4z" fill="#D5D3E1"/>
<path transform="translate(397,223)" d="m0 0h1v22l-1 18-1 37-4 5-6-3 3 4-1 3-10 7-2-1 3-3-3-3-5 1-23 16-14 10-2-1 7-8 11-10 11-9 13-11 8-6h2l1-3 2 5 6 2 1-1 1-18h-2v2l-6-2-2-1 1-42v-3z" fill="#C6643B"/>
<path transform="translate(188,246)" d="m0 0h1v67h2l1 3-1 5v16l-2 7-5 6-6 3-6 1 40 1v1h-89l1-2 19-2 9-3 11-2 9-5 3-3 2-8v-12l3-12 2-5 1-10 2-8 2-10z" fill="#985FE7"/>
<path transform="translate(301,151)" d="m0 0h7l2 1v2l4 1 19 13 15 11 20 14 12 9 5 4-1 4-5 3-4-1-34-24-18-13-16-11-6-1z" fill="#C5643C"/>
<path transform="translate(297,153)" d="m0 0 3 1v11l-20 14-34 24-14 10-4-1-5-3v-3l19-14 17-12 18-13 19-13z" fill="#C35017"/>
<path transform="translate(414,206)" d="m0 0h2v9l-2 16-3 13-2 10-4 2h-3l-1 11-1 24-2 13-4 1h-3l4-5 1-37 1-18v-21l-9 5v-4l18-14z" fill="#D5D3E1"/>
<path transform="translate(184,357)" d="m0 0h14l1 5-3 4h-2l-2 6-4 3-58 1 33 1v1l-64 1-19 1-8 5-3 7-1 30h-1l-1-9v-24l3-7 5-5 6-3 77-1 16-8 6-4 3-3z" fill="#E1912E"/>
<path transform="translate(243,353)" d="m0 0 5 1 2 1v3l5 1 13 9v2h2v2l-9 2-5 12-2 12-4 12-1 10-2 1-1-33-3-10-6-10-8-7 2-1h10l2-1z" fill="#6427D6"/>
<path transform="translate(233,307)" d="m0 0 5 2 19 13 34 24 3 2v11l-5-2-20-14-17-12-18-13-5-5v-3z" fill="#A43227"/>
<path transform="translate(165,409)" d="m0 0h10l7 4 3 5 1 4v13l-3 7-6 5-4 1h-7l-1-1z" fill="#E7AD4E"/>
<path transform="translate(413,132)" d="m0 0 15 1 14 4 12 6 10 9 6 5 5 8-1 3-5-4-9-5-14-6-24-8-8-5-4-4v-3z" fill="#6225D6"/>
<path transform="translate(372,308)" d="m0 0 5 1 3 3-5 6-23 16-18 13-17 12-3 1v-11l14-10 40-28z" fill="#A63528"/>
<path transform="translate(386,363)" d="m0 0h29l4 5v8l-3 6h-10v-3l-13-3-21-4-2-4 7-1 6 3 3-3h2v-2z" fill="#E2E3E7"/>
<path transform="translate(412,318)" d="m0 0h3l3 7v13l-4 11-4 5-9 4v3h-14l1-4 8-7 5-5 4-8 1-12v-3z" fill="#985FE7"/>
<path transform="translate(385,232)" d="m0 0 2 1-1 30-1 12 6 2 2 1v-2h2v18l-2 2-7-3-2-2-5 2-1-6 3-39-1-11z" fill="#C14A0F"/>
<path transform="translate(129,41)" d="m0 0h189l21 3 4 1v2l-16-2-15-1h-182l-7 3-3 3-2-1 5-5z" fill="#BA95F0"/>
<path transform="translate(392,226)" d="m0 0h2l1 5v45h-2v2l-6-2-2-1 1-42v-3z" fill="#C4603A"/>
<path transform="translate(231,405)" d="m0 0 8 6 6 4 1 2v24l-8-8-8-2-2 6h-1l1-30z" fill="#E4A13F"/>
<path transform="translate(360,421)" d="m0 0h2v11l4 3h56v2l2-2h15l5 2v2l-12 1h-57l-14-1-4-3v-10z" fill="#D4D2E1"/>
<path transform="translate(184,357)" d="m0 0h14l1 5-3 4h-2l-2 6-2 2h-33l4-3 14-7 7-6z" fill="#E4A13F"/>
<path transform="translate(220,309)" d="m0 0 5 2 20 14 34 24 13 9 1 4v3l-8-4-12-9-18-13-11-8v-2l-4-2-5-6h-2l-2-2-5-2-6-7z" fill="#E0E1E6"/>
<path transform="translate(361,392)" d="m0 0h3l-1 8 3 3 5 2 21 3 3 2 47 1v1h-78l-5-3-2-2v-11h2z" fill="#D6D4E1"/>
<path transform="translate(301,151)" d="m0 0h7l2 1v2l4 1 9 6-2 11-4-1-10-7-6-1z" fill="#C24E15"/>
<path transform="translate(462,144)" d="m0 0 4 1 9 10 8 16 7 21 3 17v7l-2-3-2-14-4-16h-2l-5-13v-2h-2l-8-12-7-8z" fill="#B891EF"/>
<path transform="translate(380,67)" d="m0 0h4l5 2 9 10 5 11 3 13 2 23-4-2-2-20-4-13-7-12-3-2-3-5z" fill="#A56EEA"/>
<path transform="translate(128,375)" d="m0 0h86l6 3 3 3-1 2-6-4-4-1-82-1z" fill="#C8560B"/>
<path transform="translate(213,268)" d="m0 0 2 4 1 5 7-2v17l-2 2-7 2-1-4z" fill="#A12E27"/>
<path transform="translate(382,71)" d="m0 0 7 6 5 5 7 14 1 3v17h-1l-3-12-7-15-8-15z" fill="#6729D6"/>
<path transform="translate(364,412)" d="m0 0h26l52 1v1l-5 1-69 1-3 3h-5l2-4 5-1z" fill="#9A61E7"/>
<path transform="translate(297,153)" d="m0 0 3 1v11l-10 7-4-1v-7l-4 1 5-5z" fill="#C5633B"/>
<path transform="translate(80,374)" d="m0 0h10v1l-7 1 16 2v1l-19 1-8 5-3 7-1 30h-1l-1-9v-24l3-7 5-5z" fill="#E39C38"/>
<path transform="translate(386,275)" d="m0 0 7 3v-2h2v18l-2 2-7-3z" fill="#A12E27"/>
<path transform="translate(397,223)" d="m0 0h1v22l-1 18-1 37-3 3 1-5-5-2 4-1 1-1v-69z" fill="#E39631"/>
<path transform="translate(428,132)" d="m0 0 16 2 10 4 6 3 3 5v3l3 3-1 2-8-8-12-7-13-4-4-1z" fill="#8745DB"/>
<path transform="translate(361,392)" d="m0 0h3l-1 8 2 4v2l3 1v2l3 1v2h-7l-5-3-2-2v-11h2z" fill="#D2CCE2"/>
<path transform="translate(190,462)" d="m0 0 3 1-3 3-11 3h-31l-2-2 4-1h22l13-2z" fill="#E5A13F"/>
<path transform="translate(127,463)" d="m0 0 4 1-6 4-8 2h-17l-9-3-2-2 8 1 5 1h13l11-3z" fill="#E49D3A"/>
<path transform="translate(462,144)" d="m0 0 4 1 7 10 4 9-2 2-8-11-6-8z" fill="#A872EB"/>
<path transform="translate(365,372)" d="m0 0 26 4 6 3-2 3h-7v-2h-2v-2l-18-3z" fill="#E2E3E7"/>
<path transform="translate(357,364)" d="m0 0 1 2v12l2 5-6-2-3-4v-7l5-5z" fill="#6628D6"/>
<path transform="translate(318,278)" d="m0 0 2 1-4 4-1 66h-1v-68z" fill="#C5633A"/>
<path transform="translate(301,151)" d="m0 0h7l-2 11h2l1-2-1 4-7-1z" fill="#C15E38"/>
<path transform="translate(385,386)" d="m0 0h10l-2 4-6 1-26 1 3-2h20z" fill="#9F68E8"/>
<path transform="translate(219,357)" d="m0 0 9 3 10 8 4 6-1 2-9-10-9-6-4-2z" fill="#B94A1E"/>
<path transform="translate(220,309)" d="m0 0 5 2 13 9-4 1-5-3-4-2-5-6z" fill="#DDDDE5"/>
<path transform="translate(486,186)" d="m0 0h2l4 16 1 14-2-3-2-14-3-10z" fill="#BC99EF"/>
<path transform="translate(166,409)" d="m0 0h9l6 3-1 3-9-3-3 1-2 2z" fill="#E39B38"/>
<path transform="translate(359,364)" d="m0 0 1 2-1 3 3 12 2 2-4-1-3-4v-12z" fill="#B081ED"/>
<path transform="translate(127,463)" d="m0 0 4 1-6 4-9 2-3-2 13-4z" fill="#E5A341"/>
<path transform="translate(314,157)" d="m0 0 6 2 3 2v3h-2l-1 2v-2h-3l-3-5z" fill="#AD4028"/>
<path transform="translate(278,175)" d="m0 0 2 1-2 1zm-3 2 3 1-2 4-4 3h-2v-2l-2-1z" fill="#C2572A"/>
<path transform="translate(190,462)" d="m0 0 3 1-3 3-9 2-2-2z" fill="#E49F3C"/>
<path transform="translate(233,204)" d="m0 0h5l-5 5-7 2-1-2z" fill="#C5643B"/>
<path transform="translate(457,140)" d="m0 0 4 2 2 4v3l3 3-1 2-6-6z" fill="#9357E2"/>
<path transform="translate(103,437)" d="m0 0h7l4 4h-3l-2-1-12-1v-1z" fill="#E49F3D"/>
<path transform="translate(213,292)" d="m0 0 2 3 8-3-1 3-9 5z" fill="#E39631"/>
<path transform="translate(103,408)" d="m0 0h7v2l-9 2-4 1v-2z" fill="#E5A341"/>
<path transform="translate(307,152)" d="m0 0h3v2h2l-1 2-2-1-1 7h-2z" fill="#A33127"/>
<path transform="translate(222,298)" d="m0 0 2 1-5 5h-4l-1-4 4 1z" fill="#E39631"/>
</svg>
